#!OML:ASF F:\VICON\USERDATA\INSTALL\rory3\rory3.ASF
:FULLY-SPECIFIED
:DEGREES
3355
root -0.0084076 17.9255 -0.554544 3.03259 -8.09188 5.98594
lowerback 4.0752 0.637324 1.97966
upperback 1.06855 0.985002 4.36905
thorax -1.23095 0.486158 3.33753
lowerneck -23.073 -3.67016 -8.07571
upperneck 26.9296 -3.7415 4.82065
head 13.1426 -1.81921 2.57164
rclavicle 1.66979e-014 3.18055e-014
rhumerus 37.0982 10.9078 -51.5185
rradius 64.1994
rwrist 51.3276
rhand -62.0485 -16.1811
rfingers 7.12502
rthumb -34.0997 -42.9427
lclavicle 1.66979e-014 3.18055e-014
lhumerus 30.4908 -6.32289 63.4391
lradius 60.9209
lwrist -43.1426
lhand -49.7701 59.5709
lfingers 7.12502
lthumb -22.3684 88.2959
rfemur -25.8269 -1.15502 13.8963
rtibia 29.3066
rfoot -3.67381 0.287829
rtoes 19.0428
lfemur -2.15742 -6.91209 -20.145
ltibia 33.9306
lfoot 4.18502 -23.2531
ltoes -25.9608
3356
root 0.0183863 17.9158 -0.586472 2.94595 -8.15374 5.82573
lowerback 4.13939 0.594285 2.01955
upperback 1.05829 0.933209 4.39902
thorax -1.27502 0.460157 3.34831
lowerneck -23.0684 -3.63133 -8.0958
upperneck 26.9405 -3.71088 4.91983
head 13.1461 -1.79456 2.6201
rclavicle 3.97569e-016 4.77083e-014
rhumerus 36.8243 11.019 -51.5657
rradius 64.2962
rwrist 51.121
rhand -62.115 -16.8826
rfingers 7.12502
rthumb -34.163 -43.63
lclavicle 3.97569e-016 4.77083e-014
lhumerus 30.3182 -6.33875 63.3305
lradius 60.9179
lwrist -43.2615
lhand -49.8709 59.7659
lfingers 7.12502
lthumb -22.4652 88.4792
rfemur -25.8795 -1.04412 13.9786
rtibia 29.3564
rfoot -3.63106 0.366767
rtoes 19.0984
lfemur -1.85731 -6.7145 -20.2151
ltibia 33.4875
lfoot 4.71931 -22.888
ltoes -26.4305
3357
root 0.0479193 17.9059 -0.615846 2.94933 -8.17637 5.7522
lowerback 4.02477 0.561786 1.98653
upperback 1.07902 0.882301 4.42572
thorax -1.18821 0.434722 3.39833
lowerneck -23.1815 -3.64627 -8.12964
upperneck 26.9445 -3.72305 4.96243
head 13.1736 -1.79623 2.64003
rclavicle -2.78299e-014 -1.90833e-014
rhumerus 36.5485 11.0375 -51.5598
rradius 64.4099
rwrist 51.029
rhand -62.4221 -17.5338
rfingers 7.12502
rthumb -34.4545 -44.2155
lclavicle -2.78299e-014 -1.90833e-014
lhumerus 30.0246 -6.32392 63.2855
lradius 61.1406
lwrist -43.4257
lhand -49.8185 59.5425
lfingers 7.12502
lthumb -22.4149 88.2619
rfemur -26.0088 -1.09952 13.9776
rtibia 29.3604
rfoot -3.47186 0.412599
rtoes 19.0569
lfemur -1.66897 -6.61891 -20.3932
ltibia 32.9917
lfoot 5.06538 -22.406
ltoes -24.7572
3358
root 0.0799929 17.8957 -0.642556 2.98251 -8.20199 5.73893
lowerback 3.87288 0.547236 1.93103
upperback 1.06329 0.854108 4.40801
thorax -1.11864 0.420826 3.41371
lowerneck -23.2542 -3.63847 -8.05671
upperneck 26.9342 -3.72386 4.93311
head 13.1816 -1.79203 2.61544
rclavicle -5.56597e-015 -5.08889e-014
rhumerus 36.0793 10.9823 -51.7079
rradius 64.6575
rwrist 51.0702
rhand -62.7148 -17.4755
rfingers 7.12502
rthumb -34.7324 -44.0937
lclavicle -5.56597e-015 -5.08889e-014
lhumerus 29.8288 -6.39997 63.2279
lradius 61.2978
lwrist -43.4887
lhand -49.9364 59.556
lfingers 7.12502
lthumb -22.5281 88.2617
rfemur -26.1521 -1.33797 13.9497
rtibia 29.3097
rfoot -3.19371 0.510774
rtoes 18.48
lfemur -1.49291 -6.53665 -20.6549
ltibia 32.5137
lfoot 5.12255 -22.0765
ltoes -22.8267
3359
root 0.111253 17.8869 -0.672685 2.96495 -8.28099 5.64415
lowerback 3.87586 0.535992 1.92744
upperback 0.990176 0.84274 4.40295
thorax -1.19498 0.415462 3.41076
lowerneck -23.2227 -3.61488 -8.00139
upperneck 26.9174 -3.71582 4.93861
head 13.1662 -1.78236 2.60956
rclavicle -1.19271e-015 -3.81667e-014
rhumerus 35.5698 11.0018 -51.8969
rradius 64.8597
rwrist 51.1702
rhand -62.7768 -17.2589
rfingers 7.12502
rthumb -34.7912 -43.8635
lclavicle -1.19271e-015 -3.81667e-014
lhumerus 29.6621 -6.59042 63.0676
lradius 61.2839
lwrist -43.4696
lhand -50.3743 60.2398
lfingers 7.12502
lthumb -22.9483 88.894
rfemur -26.2354 -1.35422 13.9726
rtibia 29.2091
rfoot -2.96663 0.437666
rtoes 18.3711
lfemur -1.23151 -6.39353 -20.7997
ltibia 32.125
lfoot 4.48785 -22.0484
ltoes -20.774
3360
root 0.141346 17.8786 -0.706094 2.89828 -8.3529 5.55618
lowerback 3.88003 0.499708 1.85397
upperback 0.985681 0.792363 4.4392
thorax -1.20116 0.390478 3.49236
lowerneck -23.218 -3.6024 -8.0138
upperneck 26.8541 -3.69142 4.93876
head 13.1375 -1.7726 2.61493
rclavicle 0 -1.90833e-014
rhumerus 35.223 11.056 -51.9672
rradius 65.0234
rwrist 51.2241
rhand -62.7073 -17.0011
rfingers 7.12502
rthumb -34.7252 -43.6209
lclavicle 0 -1.90833e-014
lhumerus 29.2724 -6.66736 62.9251
lradius 61.4194
lwrist -43.3617
lhand -50.5991 60.5664
lfingers 7.12502
lthumb -23.1641 89.1936
rfemur -26.2732 -1.34286 14.0014
rtibia 29.0837
rfoot -2.71651 0.32023
rtoes 18.5485
lfemur -0.915753 -6.32355 -20.9275
ltibia 31.858
lfoot 3.18463 -21.9496
ltoes -21.4285
3361
root 0.171657 17.8729 -0.73832 2.85018 -8.37104 5.56245
lowerback 3.77006 0.476994 1.72195
upperback 1.02408 0.749797 4.40834
thorax -1.09935 0.369252 3.5376
lowerneck -23.1569 -3.60829 -7.96741
upperneck 26.6702 -3.72716 4.97218
head 13.0519 -1.77769 2.61051
rclavicle 1.70955e-014 -3.18055e-015
rhumerus 34.7677 10.9931 -52.0958
rradius 65.217
rwrist 51.3432
rhand -62.7653 -16.8823
rfingers 7.12502
rthumb -34.7803 -43.4894
lclavicle 1.70955e-014 -3.18055e-015
lhumerus 28.8458 -6.71684 62.931
lradius 61.6282
lwrist -43.485
lhand -50.5272 60.3829
lfingers 7.12502
lthumb -23.095 89.0187
rfemur -26.3133 -1.38574 13.9293
rtibia 28.9505
rfoot -2.47624 0.209309
rtoes 18.1025
lfemur -0.619183 -6.39035 -21.1649
ltibia 31.6942
lfoot 1.97444 -21.2704
ltoes -22.6285
3362
root 0.200756 17.8647 -0.769825 2.84086 -8.38894 5.52677
lowerback 3.68933 0.464763 1.60948
upperback 0.988089 0.727528 4.4031
thorax -1.0914 0.358551 3.59708
lowerneck -23.1317 -3.63603 -7.96585
upperneck 26.5981 -3.77975 5.01042
head 13.0222 -1.79499 2.61445
rclavicle -3.85642e-014 3.18055e-014
rhumerus 34.1961 10.9859 -52.2053
rradius 65.4141
rwrist 51.2555
rhand -62.8738 -16.9218
rfingers 7.12502
rthumb -34.8832 -43.505
lclavicle -3.85642e-014 3.18055e-014
lhumerus 28.4888 -6.77918 63.0842
lradius 61.6151
lwrist -43.66
lhand -50.5782 60.2492
lfingers 7.12502
lthumb -23.144 88.879
rfemur -26.3817 -1.42206 13.8838
rtibia 28.84
rfoot -2.2473 0.113036
rtoes 18.2145
lfemur -0.37428 -6.38606 -21.3522
ltibia 31.5687
lfoot 1.27297 -20.3066
ltoes -20.8434
3363
root 0.232257 17.8547 -0.800606 2.82337 -8.42856 5.47472
lowerback 3.61975 0.446477 1.51166
upperback 0.926861 0.699788 4.42117
thorax -1.11539 0.345302 3.67268
lowerneck -23.0785 -3.68652 -8.04794
upperneck 26.5832 -3.8463 5.07508
head 13.0144 -1.8245 2.64153
rclavicle -5.56597e-015 -2.38542e-014
rhumerus 33.6441 11.07 -52.3211
rradius 65.546
rwrist 51.0499
rhand -62.9303 -16.4244
rfingers 7.12502
rthumb -34.9368 -42.9952
lclavicle -5.56597e-015 -2.38542e-014
lhumerus 28.0696 -6.87825 63.236
lradius 61.5809
lwrist -43.6161
lhand -50.568 60.2614
lfingers 7.12502
lthumb -23.1342 88.8924
rfemur -26.4824 -1.50917 13.8835
rtibia 28.7916
rfoot -1.98796 0.0981654
rtoes 17.6134
lfemur -0.122543 -6.33934 -21.5334
ltibia 31.3762
lfoot 0.666667 -19.5129
ltoes -18.1264
3364
root 0.264347 17.8491 -0.83394 2.75186 -8.44467 5.43976
lowerback 3.54054 0.404986 1.39825
upperback 0.921668 0.637505 4.43364
thorax -1.07443 0.314343 3.75299
lowerneck -23.0121 -3.71066 -8.10303
upperneck 26.5489 -3.87302 5.10007
head 12.9912 -1.83925 2.65537
rclavicle -2.08724e-014 -3.97569e-014
rhumerus 33.1085 11.1671 -52.4836
rradius 65.6012
rwrist 50.9396
rhand -62.9187 -15.8746
rfingers 7.12502
rthumb -34.9258 -42.448
lclavicle -2.08724e-014 -3.97569e-014
lhumerus 27.6317 -6.91571 63.351
lradius 61.4882
lwrist -43.6446
lhand -50.4328 60.082
lfingers 7.12502
lthumb -23.0044 88.7292
rfemur -26.541 -1.50291 13.8474
rtibia 28.8051
rfoot -1.84587 0.0113038
rtoes 16.7599
lfemur 0.197422 -6.21739 -21.7167
ltibia 31.0382
lfoot -0.372181 -19.217
ltoes -18.033
3365
root 0.295143 17.8417 -0.871282 2.68342 -8.43291 5.42725
lowerback 3.4957 0.365342 1.26057
upperback 0.913536 0.578294 4.41847
thorax -1.05559 0.285049 3.81785
lowerneck -23.0739 -3.68345 -8.09505
upperneck 26.5921 -3.83711 5.11243
head 13.0184 -1.82074 2.66597
rclavicle 1.45113e-014 -1.43125e-014
rhumerus 32.5022 11.2246 -52.6813
rradius 65.661
rwrist 50.7746
rhand -62.8775 -15.764
rfingers 7.12502
rthumb -34.8867 -42.3465
lclavicle 1.45113e-014 -1.43125e-014
lhumerus 27.2538 -6.99328 63.4009
lradius 61.3001
lwrist -43.6466
lhand -50.293 59.963
lfingers 7.12502
lthumb -22.8703 88.6268
rfemur -26.6171 -1.46887 13.7758
rtibia 28.8521
rfoot -1.79176 -0.0343505
rtoes 16.6773
lfemur 0.536038 -5.99169 -21.8898
ltibia 30.5678
lfoot -1.66899 -18.9731
ltoes -19.4199
3366
root 0.325002 17.8359 -0.906433 2.60028 -8.43833 5.37033
lowerback 3.46865 0.34016 1.14843
upperback 0.89706 0.540498 4.41114
thorax -1.05617 0.266523 3.87541
lowerneck -23.0716 -3.675 -8.14007
upperneck 26.6074 -3.83459 5.19375
head 13.0269 -1.81342 2.7064
rclavicle 5.36719e-015 -1.27222e-014
rhumerus 31.8026 11.2251 -52.9617
rradius 65.7136
rwrist 50.7127
rhand -62.7313 -15.5049
rfingers 7.12502
rthumb -34.748 -42.1195
lclavicle 5.36719e-015 -1.27222e-014
lhumerus 26.8463 -7.09777 63.4752
lradius 61.0414
lwrist -43.6626
lhand -50.2534 59.8789
lfingers 7.12502
lthumb -22.8323 88.5475
rfemur -26.6782 -1.36115 13.714
rtibia 28.9364
rfoot -1.83522 -0.0280373
rtoes 16.74
lfemur 0.979151 -5.73628 -22.022
ltibia 30.0099
lfoot -2.76716 -18.4773
ltoes -20.0134
